<?xml version="1.0" encoding="UTF-8" standalone="no"?>
<!DOCTYPE svg PUBLIC "-//W3C//DTD SVG 1.1//EN"
 "http://www.w3.org/Graphics/SVG/1.1/DTD/svg11.dtd">
<!-- Generated by graphviz version 2.43.0 (0)
 -->
<!-- Title: %3 Pages: 1 -->
<svg width="4504pt" height="566pt"
 viewBox="0.00 0.00 4503.99 566.00" xmlns="http://www.w3.org/2000/svg" xmlns:xlink="http://www.w3.org/1999/xlink">
<g id="graph0" class="graph" transform="scale(1 1) rotate(0) translate(4 562)">
<title>%3</title>
<polygon fill="white" stroke="transparent" points="-4,4 -4,-562 4499.99,-562 4499.99,4 -4,4"/>
<!-- 0 -->
<g id="node1" class="node">
<title>0</title>
<ellipse fill="none" stroke="black" cx="2913.04" cy="-540" rx="137.58" ry="18"/>
<text text-anchor="middle" x="2913.04" y="-536.3" font-family="Times,serif" font-size="14.00">avg_vl_total_spending&lt;21198.1328</text>
</g>
<!-- 1 -->
<g id="node2" class="node">
<title>1</title>
<ellipse fill="none" stroke="black" cx="2584.04" cy="-453" rx="137.58" ry="18"/>
<text text-anchor="middle" x="2584.04" y="-449.3" font-family="Times,serif" font-size="14.00">avg_vl_total_spending&lt;10166.6729</text>
</g>
<!-- 0&#45;&gt;1 -->
<g id="edge1" class="edge">
<title>0&#45;&gt;1</title>
<path fill="none" stroke="#0000ff" d="M2853.84,-523.71C2797.41,-509.13 2712.46,-487.18 2653,-471.82"/>
<polygon fill="#0000ff" stroke="#0000ff" points="2653.88,-468.43 2643.32,-469.31 2652.13,-475.21 2653.88,-468.43"/>
<text text-anchor="middle" x="2803.54" y="-492.8" font-family="Times,serif" font-size="14.00">yes, missing</text>
</g>
<!-- 2 -->
<g id="node3" class="node">
<title>2</title>
<ellipse fill="none" stroke="black" cx="3508.04" cy="-453" rx="137.58" ry="18"/>
<text text-anchor="middle" x="3508.04" y="-449.3" font-family="Times,serif" font-size="14.00">avg_vl_total_spending&lt;25189.2246</text>
</g>
<!-- 0&#45;&gt;2 -->
<g id="edge2" class="edge">
<title>0&#45;&gt;2</title>
<path fill="none" stroke="#ff0000" d="M3002.44,-526.23C3111.4,-510.66 3294.98,-484.44 3408.39,-468.24"/>
<polygon fill="#ff0000" stroke="#ff0000" points="3409.06,-471.68 3418.46,-466.8 3408.07,-464.75 3409.06,-471.68"/>
<text text-anchor="middle" x="3254.04" y="-492.8" font-family="Times,serif" font-size="14.00">no</text>
</g>
<!-- 3 -->
<g id="node4" class="node">
<title>3</title>
<ellipse fill="none" stroke="black" cx="1608.04" cy="-366" rx="137.58" ry="18"/>
<text text-anchor="middle" x="1608.04" y="-362.3" font-family="Times,serif" font-size="14.00">avg_vl_total_spending&lt;9877.94629</text>
</g>
<!-- 1&#45;&gt;3 -->
<g id="edge3" class="edge">
<title>1&#45;&gt;3</title>
<path fill="none" stroke="#0000ff" d="M2473.03,-442.33C2288.6,-426.27 1920.47,-394.21 1729.41,-377.57"/>
<polygon fill="#0000ff" stroke="#0000ff" points="1729.59,-374.07 1719.32,-376.69 1728.98,-381.05 1729.59,-374.07"/>
<text text-anchor="middle" x="2189.54" y="-405.8" font-family="Times,serif" font-size="14.00">yes, missing</text>
</g>
<!-- 4 -->
<g id="node5" class="node">
<title>4</title>
<ellipse fill="none" stroke="black" cx="2584.04" cy="-366" rx="90.18" ry="18"/>
<text text-anchor="middle" x="2584.04" y="-362.3" font-family="Times,serif" font-size="14.00">tempo_aprovacao&lt;7.5</text>
</g>
<!-- 1&#45;&gt;4 -->
<g id="edge4" class="edge">
<title>1&#45;&gt;4</title>
<path fill="none" stroke="#ff0000" d="M2584.04,-434.8C2584.04,-423.16 2584.04,-407.55 2584.04,-394.24"/>
<polygon fill="#ff0000" stroke="#ff0000" points="2587.54,-394.18 2584.04,-384.18 2580.54,-394.18 2587.54,-394.18"/>
<text text-anchor="middle" x="2591.04" y="-405.8" font-family="Times,serif" font-size="14.00">no</text>
</g>
<!-- 5 -->
<g id="node54" class="node">
<title>5</title>
<ellipse fill="none" stroke="black" cx="3508.04" cy="-366" rx="97.48" ry="18"/>
<text text-anchor="middle" x="3508.04" y="-362.3" font-family="Times,serif" font-size="14.00">nr_purchases_online&lt;29</text>
</g>
<!-- 2&#45;&gt;5 -->
<g id="edge53" class="edge">
<title>2&#45;&gt;5</title>
<path fill="none" stroke="#0000ff" d="M3508.04,-434.8C3508.04,-423.16 3508.04,-407.55 3508.04,-394.24"/>
<polygon fill="#0000ff" stroke="#0000ff" points="3511.54,-394.18 3508.04,-384.18 3504.54,-394.18 3511.54,-394.18"/>
<text text-anchor="middle" x="3542.54" y="-405.8" font-family="Times,serif" font-size="14.00">yes, missing</text>
</g>
<!-- 6 -->
<g id="node55" class="node">
<title>6</title>
<ellipse fill="none" stroke="black" cx="3871.04" cy="-366" rx="137.58" ry="18"/>
<text text-anchor="middle" x="3871.04" y="-362.3" font-family="Times,serif" font-size="14.00">avg_vl_total_spending&lt;28238.9648</text>
</g>
<!-- 2&#45;&gt;6 -->
<g id="edge54" class="edge">
<title>2&#45;&gt;6</title>
<path fill="none" stroke="#ff0000" d="M3572.1,-437C3635.02,-422.27 3730.94,-399.81 3797.07,-384.32"/>
<polygon fill="#ff0000" stroke="#ff0000" points="3798.07,-387.68 3807.01,-381.99 3796.48,-380.87 3798.07,-387.68"/>
<text text-anchor="middle" x="3719.04" y="-405.8" font-family="Times,serif" font-size="14.00">no</text>
</g>
<!-- 7 -->
<g id="node6" class="node">
<title>7</title>
<ellipse fill="none" stroke="black" cx="1049.04" cy="-279" rx="122.38" ry="18"/>
<text text-anchor="middle" x="1049.04" y="-275.3" font-family="Times,serif" font-size="14.00">tempo_relacionamento&lt;1652.5</text>
</g>
<!-- 3&#45;&gt;7 -->
<g id="edge5" class="edge">
<title>3&#45;&gt;7</title>
<path fill="none" stroke="#0000ff" d="M1521.92,-351.91C1418.68,-336.21 1246.38,-310.01 1140.72,-293.94"/>
<polygon fill="#0000ff" stroke="#0000ff" points="1141.12,-290.46 1130.71,-292.42 1140.07,-297.38 1141.12,-290.46"/>
<text text-anchor="middle" x="1396.54" y="-318.8" font-family="Times,serif" font-size="14.00">yes, missing</text>
</g>
<!-- 8 -->
<g id="node7" class="node">
<title>8</title>
<ellipse fill="none" stroke="black" cx="1608.04" cy="-279" rx="90.18" ry="18"/>
<text text-anchor="middle" x="1608.04" y="-275.3" font-family="Times,serif" font-size="14.00">tempo_aprovacao&lt;1.5</text>
</g>
<!-- 3&#45;&gt;8 -->
<g id="edge6" class="edge">
<title>3&#45;&gt;8</title>
<path fill="none" stroke="#ff0000" d="M1608.04,-347.8C1608.04,-336.16 1608.04,-320.55 1608.04,-307.24"/>
<polygon fill="#ff0000" stroke="#ff0000" points="1611.54,-307.18 1608.04,-297.18 1604.54,-307.18 1611.54,-307.18"/>
<text text-anchor="middle" x="1615.04" y="-318.8" font-family="Times,serif" font-size="14.00">no</text>
</g>
<!-- 9 -->
<g id="node24" class="node">
<title>9</title>
<ellipse fill="none" stroke="black" cx="2449.04" cy="-279" rx="80.69" ry="18"/>
<text text-anchor="middle" x="2449.04" y="-275.3" font-family="Times,serif" font-size="14.00">ganho_limite&lt;4330</text>
</g>
<!-- 4&#45;&gt;9 -->
<g id="edge23" class="edge">
<title>4&#45;&gt;9</title>
<path fill="none" stroke="#0000ff" d="M2558.01,-348.61C2536.82,-335.26 2506.71,-316.31 2483.51,-301.7"/>
<polygon fill="#0000ff" stroke="#0000ff" points="2485.32,-298.7 2474.99,-296.34 2481.59,-304.63 2485.32,-298.7"/>
<text text-anchor="middle" x="2559.54" y="-318.8" font-family="Times,serif" font-size="14.00">yes, missing</text>
</g>
<!-- 10 -->
<g id="node25" class="node">
<title>10</title>
<ellipse fill="none" stroke="black" cx="3184.04" cy="-279" rx="87.18" ry="18"/>
<text text-anchor="middle" x="3184.04" y="-275.3" font-family="Times,serif" font-size="14.00">ganho_limite&lt;2962.5</text>
</g>
<!-- 4&#45;&gt;10 -->
<g id="edge24" class="edge">
<title>4&#45;&gt;10</title>
<path fill="none" stroke="#ff0000" d="M2655.23,-354.92C2767.88,-338.96 2986.53,-307.98 3104.31,-291.3"/>
<polygon fill="#ff0000" stroke="#ff0000" points="3104.93,-294.74 3114.34,-289.87 3103.95,-287.81 3104.93,-294.74"/>
<text text-anchor="middle" x="2927.04" y="-318.8" font-family="Times,serif" font-size="14.00">no</text>
</g>
<!-- 15 -->
<g id="node8" class="node">
<title>15</title>
<ellipse fill="none" stroke="black" cx="581.04" cy="-192" rx="122.38" ry="18"/>
<text text-anchor="middle" x="581.04" y="-188.3" font-family="Times,serif" font-size="14.00">tempo_relacionamento&lt;1602.5</text>
</g>
<!-- 7&#45;&gt;15 -->
<g id="edge7" class="edge">
<title>7&#45;&gt;15</title>
<path fill="none" stroke="#0000ff" d="M975.4,-264.63C891.13,-249.32 753.39,-224.3 665.02,-208.25"/>
<polygon fill="#0000ff" stroke="#0000ff" points="665.49,-204.78 655.02,-206.44 664.24,-211.67 665.49,-204.78"/>
<text text-anchor="middle" x="878.54" y="-231.8" font-family="Times,serif" font-size="14.00">yes, missing</text>
</g>
<!-- 16 -->
<g id="node9" class="node">
<title>16</title>
<ellipse fill="none" stroke="black" cx="1049.04" cy="-192" rx="122.38" ry="18"/>
<text text-anchor="middle" x="1049.04" y="-188.3" font-family="Times,serif" font-size="14.00">tempo_relacionamento&lt;1659.5</text>
</g>
<!-- 7&#45;&gt;16 -->
<g id="edge8" class="edge">
<title>7&#45;&gt;16</title>
<path fill="none" stroke="#ff0000" d="M1049.04,-260.8C1049.04,-249.16 1049.04,-233.55 1049.04,-220.24"/>
<polygon fill="#ff0000" stroke="#ff0000" points="1052.54,-220.18 1049.04,-210.18 1045.54,-220.18 1052.54,-220.18"/>
<text text-anchor="middle" x="1056.04" y="-231.8" font-family="Times,serif" font-size="14.00">no</text>
</g>
<!-- 17 -->
<g id="node22" class="node">
<title>17</title>
<ellipse fill="none" stroke="black" cx="1518.04" cy="-192" rx="87.18" ry="18"/>
<text text-anchor="middle" x="1518.04" y="-188.3" font-family="Times,serif" font-size="14.00">leaf=&#45;0.00451670727</text>
</g>
<!-- 8&#45;&gt;17 -->
<g id="edge21" class="edge">
<title>8&#45;&gt;17</title>
<path fill="none" stroke="#0000ff" d="M1590.26,-261.21C1576.82,-248.52 1558.2,-230.93 1543.23,-216.79"/>
<polygon fill="#0000ff" stroke="#0000ff" points="1545.46,-214.08 1535.79,-209.76 1540.65,-219.17 1545.46,-214.08"/>
<text text-anchor="middle" x="1603.54" y="-231.8" font-family="Times,serif" font-size="14.00">yes, missing</text>
</g>
<!-- 18 -->
<g id="node23" class="node">
<title>18</title>
<ellipse fill="none" stroke="black" cx="1697.04" cy="-192" rx="74.19" ry="18"/>
<text text-anchor="middle" x="1697.04" y="-188.3" font-family="Times,serif" font-size="14.00">leaf=&#45;0.27827993</text>
</g>
<!-- 8&#45;&gt;18 -->
<g id="edge22" class="edge">
<title>8&#45;&gt;18</title>
<path fill="none" stroke="#ff0000" d="M1625.63,-261.21C1638.91,-248.52 1657.33,-230.93 1672.13,-216.79"/>
<polygon fill="#ff0000" stroke="#ff0000" points="1674.68,-219.2 1679.5,-209.76 1669.85,-214.13 1674.68,-219.2"/>
<text text-anchor="middle" x="1665.04" y="-231.8" font-family="Times,serif" font-size="14.00">no</text>
</g>
<!-- 27 -->
<g id="node10" class="node">
<title>27</title>
<ellipse fill="none" stroke="black" cx="279.04" cy="-105" rx="115.08" ry="18"/>
<text text-anchor="middle" x="279.04" y="-101.3" font-family="Times,serif" font-size="14.00">tempo_relacionamento&lt;1578</text>
</g>
<!-- 15&#45;&gt;27 -->
<g id="edge9" class="edge">
<title>15&#45;&gt;27</title>
<path fill="none" stroke="#0000ff" d="M527.05,-175.8C475.22,-161.22 396.95,-139.19 342.24,-123.79"/>
<polygon fill="#0000ff" stroke="#0000ff" points="342.89,-120.33 332.31,-120.99 340.99,-127.07 342.89,-120.33"/>
<text text-anchor="middle" x="483.54" y="-144.8" font-family="Times,serif" font-size="14.00">yes, missing</text>
</g>
<!-- 28 -->
<g id="node11" class="node">
<title>28</title>
<ellipse fill="none" stroke="black" cx="581.04" cy="-105" rx="118.08" ry="18"/>
<text text-anchor="middle" x="581.04" y="-101.3" font-family="Times,serif" font-size="14.00">share_of_wallet&lt;0.236360952</text>
</g>
<!-- 15&#45;&gt;28 -->
<g id="edge10" class="edge">
<title>15&#45;&gt;28</title>
<path fill="none" stroke="#ff0000" d="M581.04,-173.8C581.04,-162.16 581.04,-146.55 581.04,-133.24"/>
<polygon fill="#ff0000" stroke="#ff0000" points="584.54,-133.18 581.04,-123.18 577.54,-133.18 584.54,-133.18"/>
<text text-anchor="middle" x="588.04" y="-144.8" font-family="Times,serif" font-size="14.00">no</text>
</g>
<!-- 29 -->
<g id="node16" class="node">
<title>29</title>
<ellipse fill="none" stroke="black" cx="944.04" cy="-105" rx="118.08" ry="18"/>
<text text-anchor="middle" x="944.04" y="-101.3" font-family="Times,serif" font-size="14.00">share_of_wallet&lt;0.433966935</text>
</g>
<!-- 16&#45;&gt;29 -->
<g id="edge15" class="edge">
<title>16&#45;&gt;29</title>
<path fill="none" stroke="#0000ff" d="M1028.3,-174.21C1012.48,-161.4 990.5,-143.61 972.95,-129.4"/>
<polygon fill="#0000ff" stroke="#0000ff" points="974.72,-126.33 964.74,-122.76 970.31,-131.77 974.72,-126.33"/>
<text text-anchor="middle" x="1037.54" y="-144.8" font-family="Times,serif" font-size="14.00">yes, missing</text>
</g>
<!-- 30 -->
<g id="node17" class="node">
<title>30</title>
<ellipse fill="none" stroke="black" cx="1199.04" cy="-105" rx="118.08" ry="18"/>
<text text-anchor="middle" x="1199.04" y="-101.3" font-family="Times,serif" font-size="14.00">share_of_wallet&lt;0.829063714</text>
</g>
<!-- 16&#45;&gt;30 -->
<g id="edge16" class="edge">
<title>16&#45;&gt;30</title>
<path fill="none" stroke="#ff0000" d="M1078.32,-174.41C1101.96,-161.01 1135.41,-142.06 1161.1,-127.5"/>
<polygon fill="#ff0000" stroke="#ff0000" points="1162.86,-130.52 1169.84,-122.55 1159.41,-124.43 1162.86,-130.52"/>
<text text-anchor="middle" x="1140.04" y="-144.8" font-family="Times,serif" font-size="14.00">no</text>
</g>
<!-- 41 -->
<g id="node12" class="node">
<title>41</title>
<ellipse fill="none" stroke="black" cx="89.04" cy="-18" rx="89.08" ry="18"/>
<text text-anchor="middle" x="89.04" y="-14.3" font-family="Times,serif" font-size="14.00">leaf=0.000206478726</text>
</g>
<!-- 27&#45;&gt;41 -->
<g id="edge11" class="edge">
<title>27&#45;&gt;41</title>
<path fill="none" stroke="#0000ff" d="M242.86,-87.81C211.79,-73.91 166.89,-53.83 133.62,-38.94"/>
<polygon fill="#0000ff" stroke="#0000ff" points="134.69,-35.59 124.13,-34.7 131.83,-41.98 134.69,-35.59"/>
<text text-anchor="middle" x="230.54" y="-57.8" font-family="Times,serif" font-size="14.00">yes, missing</text>
</g>
<!-- 42 -->
<g id="node13" class="node">
<title>42</title>
<ellipse fill="none" stroke="black" cx="279.04" cy="-18" rx="83.39" ry="18"/>
<text text-anchor="middle" x="279.04" y="-14.3" font-family="Times,serif" font-size="14.00">leaf=&#45;0.0995060727</text>
</g>
<!-- 27&#45;&gt;42 -->
<g id="edge12" class="edge">
<title>27&#45;&gt;42</title>
<path fill="none" stroke="#ff0000" d="M279.04,-86.8C279.04,-75.16 279.04,-59.55 279.04,-46.24"/>
<polygon fill="#ff0000" stroke="#ff0000" points="282.54,-46.18 279.04,-36.18 275.54,-46.18 282.54,-46.18"/>
<text text-anchor="middle" x="286.04" y="-57.8" font-family="Times,serif" font-size="14.00">no</text>
</g>
<!-- 43 -->
<g id="node14" class="node">
<title>43</title>
<ellipse fill="none" stroke="black" cx="456.04" cy="-18" rx="75.29" ry="18"/>
<text text-anchor="middle" x="456.04" y="-14.3" font-family="Times,serif" font-size="14.00">leaf=0.172411084</text>
</g>
<!-- 28&#45;&gt;43 -->
<g id="edge13" class="edge">
<title>28&#45;&gt;43</title>
<path fill="none" stroke="#0000ff" d="M556.35,-87.21C536.84,-73.94 509.45,-55.32 488.23,-40.88"/>
<polygon fill="#0000ff" stroke="#0000ff" points="490.08,-37.91 479.84,-35.18 486.14,-43.7 490.08,-37.91"/>
<text text-anchor="middle" x="560.54" y="-57.8" font-family="Times,serif" font-size="14.00">yes, missing</text>
</g>
<!-- 44 -->
<g id="node15" class="node">
<title>44</title>
<ellipse fill="none" stroke="black" cx="633.04" cy="-18" rx="83.39" ry="18"/>
<text text-anchor="middle" x="633.04" y="-14.3" font-family="Times,serif" font-size="14.00">leaf=&#45;0.0320770517</text>
</g>
<!-- 28&#45;&gt;44 -->
<g id="edge14" class="edge">
<title>28&#45;&gt;44</title>
<path fill="none" stroke="#ff0000" d="M591.57,-86.8C598.94,-74.74 608.94,-58.4 617.26,-44.79"/>
<polygon fill="#ff0000" stroke="#ff0000" points="620.48,-46.24 622.71,-35.89 614.51,-42.59 620.48,-46.24"/>
<text text-anchor="middle" x="618.04" y="-57.8" font-family="Times,serif" font-size="14.00">no</text>
</g>
<!-- 45 -->
<g id="node18" class="node">
<title>45</title>
<ellipse fill="none" stroke="black" cx="808.04" cy="-18" rx="74.19" ry="18"/>
<text text-anchor="middle" x="808.04" y="-14.3" font-family="Times,serif" font-size="14.00">leaf=&#45;0.24651596</text>
</g>
<!-- 29&#45;&gt;45 -->
<g id="edge17" class="edge">
<title>29&#45;&gt;45</title>
<path fill="none" stroke="#0000ff" d="M916.74,-87.34C907.32,-81.56 896.7,-75.02 887.04,-69 872.24,-59.77 855.95,-49.48 842.02,-40.65"/>
<polygon fill="#0000ff" stroke="#0000ff" points="843.57,-37.48 833.25,-35.08 839.81,-43.39 843.57,-37.48"/>
<text text-anchor="middle" x="921.54" y="-57.8" font-family="Times,serif" font-size="14.00">yes, missing</text>
</g>
<!-- 46 -->
<g id="node19" class="node">
<title>46</title>
<ellipse fill="none" stroke="black" cx="979.04" cy="-18" rx="78.79" ry="18"/>
<text text-anchor="middle" x="979.04" y="-14.3" font-family="Times,serif" font-size="14.00">leaf=&#45;0.015089646</text>
</g>
<!-- 29&#45;&gt;46 -->
<g id="edge18" class="edge">
<title>29&#45;&gt;46</title>
<path fill="none" stroke="#ff0000" d="M951.12,-86.8C956.01,-74.93 962.6,-58.93 968.15,-45.45"/>
<polygon fill="#ff0000" stroke="#ff0000" points="971.4,-46.75 971.97,-36.18 964.93,-44.09 971.4,-46.75"/>
<text text-anchor="middle" x="971.04" y="-57.8" font-family="Times,serif" font-size="14.00">no</text>
</g>
<!-- 47 -->
<g id="node20" class="node">
<title>47</title>
<ellipse fill="none" stroke="black" cx="1163.04" cy="-18" rx="87.18" ry="18"/>
<text text-anchor="middle" x="1163.04" y="-14.3" font-family="Times,serif" font-size="14.00">leaf=&#45;0.00365338847</text>
</g>
<!-- 30&#45;&gt;47 -->
<g id="edge19" class="edge">
<title>30&#45;&gt;47</title>
<path fill="none" stroke="#0000ff" d="M1191.76,-86.8C1186.73,-74.93 1179.95,-58.93 1174.24,-45.45"/>
<polygon fill="#0000ff" stroke="#0000ff" points="1177.44,-44.02 1170.32,-36.18 1170.99,-46.75 1177.44,-44.02"/>
<text text-anchor="middle" x="1218.54" y="-57.8" font-family="Times,serif" font-size="14.00">yes, missing</text>
</g>
<!-- 48 -->
<g id="node21" class="node">
<title>48</title>
<ellipse fill="none" stroke="black" cx="1347.04" cy="-18" rx="78.79" ry="18"/>
<text text-anchor="middle" x="1347.04" y="-14.3" font-family="Times,serif" font-size="14.00">leaf=&#45;0.203699127</text>
</g>
<!-- 30&#45;&gt;48 -->
<g id="edge20" class="edge">
<title>30&#45;&gt;48</title>
<path fill="none" stroke="#ff0000" d="M1227.93,-87.41C1251.45,-73.9 1284.82,-54.74 1310.25,-40.13"/>
<polygon fill="#ff0000" stroke="#ff0000" points="1312.3,-42.99 1319.23,-34.97 1308.82,-36.92 1312.3,-42.99"/>
<text text-anchor="middle" x="1289.04" y="-57.8" font-family="Times,serif" font-size="14.00">no</text>
</g>
<!-- 19 -->
<g id="node26" class="node">
<title>19</title>
<ellipse fill="none" stroke="black" cx="1991.04" cy="-192" rx="80.69" ry="18"/>
<text text-anchor="middle" x="1991.04" y="-188.3" font-family="Times,serif" font-size="14.00">ganho_limite&lt;2605</text>
</g>
<!-- 9&#45;&gt;19 -->
<g id="edge25" class="edge">
<title>9&#45;&gt;19</title>
<path fill="none" stroke="#0000ff" d="M2389.17,-266.89C2304.65,-251.2 2150.69,-222.63 2061.01,-205.98"/>
<polygon fill="#0000ff" stroke="#0000ff" points="2061.4,-202.5 2050.93,-204.11 2060.13,-209.38 2061.4,-202.5"/>
<text text-anchor="middle" x="2282.54" y="-231.8" font-family="Times,serif" font-size="14.00">yes, missing</text>
</g>
<!-- 20 -->
<g id="node27" class="node">
<title>20</title>
<ellipse fill="none" stroke="black" cx="2449.04" cy="-192" rx="105.88" ry="18"/>
<text text-anchor="middle" x="2449.04" y="-188.3" font-family="Times,serif" font-size="14.00">nr_declared_income&lt;3075</text>
</g>
<!-- 9&#45;&gt;20 -->
<g id="edge26" class="edge">
<title>9&#45;&gt;20</title>
<path fill="none" stroke="#ff0000" d="M2449.04,-260.8C2449.04,-249.16 2449.04,-233.55 2449.04,-220.24"/>
<polygon fill="#ff0000" stroke="#ff0000" points="2452.54,-220.18 2449.04,-210.18 2445.54,-220.18 2452.54,-220.18"/>
<text text-anchor="middle" x="2456.04" y="-231.8" font-family="Times,serif" font-size="14.00">no</text>
</g>
<!-- 21 -->
<g id="node40" class="node">
<title>21</title>
<ellipse fill="none" stroke="black" cx="3184.04" cy="-192" rx="105.88" ry="18"/>
<text text-anchor="middle" x="3184.04" y="-188.3" font-family="Times,serif" font-size="14.00">nr_declared_income&lt;2650</text>
</g>
<!-- 10&#45;&gt;21 -->
<g id="edge39" class="edge">
<title>10&#45;&gt;21</title>
<path fill="none" stroke="#0000ff" d="M3184.04,-260.8C3184.04,-249.16 3184.04,-233.55 3184.04,-220.24"/>
<polygon fill="#0000ff" stroke="#0000ff" points="3187.54,-220.18 3184.04,-210.18 3180.54,-220.18 3187.54,-220.18"/>
<text text-anchor="middle" x="3218.54" y="-231.8" font-family="Times,serif" font-size="14.00">yes, missing</text>
</g>
<!-- 22 -->
<g id="node41" class="node">
<title>22</title>
<ellipse fill="none" stroke="black" cx="3578.04" cy="-192" rx="122.38" ry="18"/>
<text text-anchor="middle" x="3578.04" y="-188.3" font-family="Times,serif" font-size="14.00">tempo_relacionamento&lt;1390.5</text>
</g>
<!-- 10&#45;&gt;22 -->
<g id="edge40" class="edge">
<title>10&#45;&gt;22</title>
<path fill="none" stroke="#ff0000" d="M3242.18,-265.46C3311.11,-250.59 3426.21,-225.76 3502.12,-209.38"/>
<polygon fill="#ff0000" stroke="#ff0000" points="3503.06,-212.76 3512.1,-207.23 3501.59,-205.91 3503.06,-212.76"/>
<text text-anchor="middle" x="3412.04" y="-231.8" font-family="Times,serif" font-size="14.00">no</text>
</g>
<!-- 31 -->
<g id="node28" class="node">
<title>31</title>
<ellipse fill="none" stroke="black" cx="1704.04" cy="-105" rx="80.69" ry="18"/>
<text text-anchor="middle" x="1704.04" y="-101.3" font-family="Times,serif" font-size="14.00">ganho_limite&lt;1075</text>
</g>
<!-- 19&#45;&gt;31 -->
<g id="edge27" class="edge">
<title>19&#45;&gt;31</title>
<path fill="none" stroke="#0000ff" d="M1944.61,-177.25C1894.28,-162.34 1813.96,-138.55 1760.13,-122.61"/>
<polygon fill="#0000ff" stroke="#0000ff" points="1760.99,-119.22 1750.41,-119.73 1759,-125.93 1760.99,-119.22"/>
<text text-anchor="middle" x="1899.54" y="-144.8" font-family="Times,serif" font-size="14.00">yes, missing</text>
</g>
<!-- 32 -->
<g id="node29" class="node">
<title>32</title>
<ellipse fill="none" stroke="black" cx="1991.04" cy="-105" rx="80.69" ry="18"/>
<text text-anchor="middle" x="1991.04" y="-101.3" font-family="Times,serif" font-size="14.00">ganho_limite&lt;3760</text>
</g>
<!-- 19&#45;&gt;32 -->
<g id="edge28" class="edge">
<title>19&#45;&gt;32</title>
<path fill="none" stroke="#ff0000" d="M1991.04,-173.8C1991.04,-162.16 1991.04,-146.55 1991.04,-133.24"/>
<polygon fill="#ff0000" stroke="#ff0000" points="1994.54,-133.18 1991.04,-123.18 1987.54,-133.18 1994.54,-133.18"/>
<text text-anchor="middle" x="1998.04" y="-144.8" font-family="Times,serif" font-size="14.00">no</text>
</g>
<!-- 33 -->
<g id="node34" class="node">
<title>33</title>
<ellipse fill="none" stroke="black" cx="2393.04" cy="-105" rx="97.48" ry="18"/>
<text text-anchor="middle" x="2393.04" y="-101.3" font-family="Times,serif" font-size="14.00">nr_purchases_online&lt;19</text>
</g>
<!-- 20&#45;&gt;33 -->
<g id="edge33" class="edge">
<title>20&#45;&gt;33</title>
<path fill="none" stroke="#0000ff" d="M2437.71,-173.8C2429.69,-161.62 2418.79,-145.09 2409.77,-131.4"/>
<polygon fill="#0000ff" stroke="#0000ff" points="2412.59,-129.31 2404.17,-122.89 2406.75,-133.16 2412.59,-129.31"/>
<text text-anchor="middle" x="2459.54" y="-144.8" font-family="Times,serif" font-size="14.00">yes, missing</text>
</g>
<!-- 34 -->
<g id="node35" class="node">
<title>34</title>
<ellipse fill="none" stroke="black" cx="2614.04" cy="-105" rx="105.88" ry="18"/>
<text text-anchor="middle" x="2614.04" y="-101.3" font-family="Times,serif" font-size="14.00">nr_declared_income&lt;7050</text>
</g>
<!-- 20&#45;&gt;34 -->
<g id="edge34" class="edge">
<title>20&#45;&gt;34</title>
<path fill="none" stroke="#ff0000" d="M2480.86,-174.61C2507.3,-160.99 2545.1,-141.51 2573.68,-126.79"/>
<polygon fill="#ff0000" stroke="#ff0000" points="2575.32,-129.89 2582.61,-122.19 2572.11,-123.66 2575.32,-129.89"/>
<text text-anchor="middle" x="2549.04" y="-144.8" font-family="Times,serif" font-size="14.00">no</text>
</g>
<!-- 49 -->
<g id="node30" class="node">
<title>49</title>
<ellipse fill="none" stroke="black" cx="1527.04" cy="-18" rx="83.39" ry="18"/>
<text text-anchor="middle" x="1527.04" y="-14.3" font-family="Times,serif" font-size="14.00">leaf=&#45;0.0149994334</text>
</g>
<!-- 31&#45;&gt;49 -->
<g id="edge29" class="edge">
<title>31&#45;&gt;49</title>
<path fill="none" stroke="#0000ff" d="M1671.7,-88.5C1659.02,-82.42 1644.35,-75.39 1631.04,-69 1610.65,-59.21 1588.01,-48.33 1569.08,-39.22"/>
<polygon fill="#0000ff" stroke="#0000ff" points="1570.35,-35.95 1559.83,-34.77 1567.32,-42.26 1570.35,-35.95"/>
<text text-anchor="middle" x="1665.54" y="-57.8" font-family="Times,serif" font-size="14.00">yes, missing</text>
</g>
<!-- 50 -->
<g id="node31" class="node">
<title>50</title>
<ellipse fill="none" stroke="black" cx="1704.04" cy="-18" rx="75.29" ry="18"/>
<text text-anchor="middle" x="1704.04" y="-14.3" font-family="Times,serif" font-size="14.00">leaf=0.171730071</text>
</g>
<!-- 31&#45;&gt;50 -->
<g id="edge30" class="edge">
<title>31&#45;&gt;50</title>
<path fill="none" stroke="#ff0000" d="M1704.04,-86.8C1704.04,-75.16 1704.04,-59.55 1704.04,-46.24"/>
<polygon fill="#ff0000" stroke="#ff0000" points="1707.54,-46.18 1704.04,-36.18 1700.54,-46.18 1707.54,-46.18"/>
<text text-anchor="middle" x="1711.04" y="-57.8" font-family="Times,serif" font-size="14.00">no</text>
</g>
<!-- 51 -->
<g id="node32" class="node">
<title>51</title>
<ellipse fill="none" stroke="black" cx="1876.04" cy="-18" rx="78.79" ry="18"/>
<text text-anchor="middle" x="1876.04" y="-14.3" font-family="Times,serif" font-size="14.00">leaf=&#45;0.306971818</text>
</g>
<!-- 32&#45;&gt;51 -->
<g id="edge31" class="edge">
<title>32&#45;&gt;51</title>
<path fill="none" stroke="#0000ff" d="M1968.87,-87.61C1951.05,-74.44 1925.84,-55.81 1906.19,-41.28"/>
<polygon fill="#0000ff" stroke="#0000ff" points="1908.27,-38.47 1898.15,-35.34 1904.11,-44.1 1908.27,-38.47"/>
<text text-anchor="middle" x="1975.54" y="-57.8" font-family="Times,serif" font-size="14.00">yes, missing</text>
</g>
<!-- 52 -->
<g id="node33" class="node">
<title>52</title>
<ellipse fill="none" stroke="black" cx="2056.04" cy="-18" rx="83.39" ry="18"/>
<text text-anchor="middle" x="2056.04" y="-14.3" font-family="Times,serif" font-size="14.00">leaf=&#45;0.0199416839</text>
</g>
<!-- 32&#45;&gt;52 -->
<g id="edge32" class="edge">
<title>32&#45;&gt;52</title>
<path fill="none" stroke="#ff0000" d="M2003.88,-87.21C2013.26,-74.95 2026.13,-58.11 2036.74,-44.24"/>
<polygon fill="#ff0000" stroke="#ff0000" points="2039.71,-46.12 2043,-36.05 2034.15,-41.87 2039.71,-46.12"/>
<text text-anchor="middle" x="2035.04" y="-57.8" font-family="Times,serif" font-size="14.00">no</text>
</g>
<!-- 53 -->
<g id="node36" class="node">
<title>53</title>
<ellipse fill="none" stroke="black" cx="2240.04" cy="-18" rx="83.39" ry="18"/>
<text text-anchor="middle" x="2240.04" y="-14.3" font-family="Times,serif" font-size="14.00">leaf=&#45;0.0332798064</text>
</g>
<!-- 33&#45;&gt;53 -->
<g id="edge35" class="edge">
<title>33&#45;&gt;53</title>
<path fill="none" stroke="#0000ff" d="M2363.9,-87.81C2339.47,-74.24 2304.42,-54.76 2277.83,-39.99"/>
<polygon fill="#0000ff" stroke="#0000ff" points="2279.25,-36.78 2268.81,-34.98 2275.85,-42.9 2279.25,-36.78"/>
<text text-anchor="middle" x="2360.54" y="-57.8" font-family="Times,serif" font-size="14.00">yes, missing</text>
</g>
<!-- 54 -->
<g id="node37" class="node">
<title>54</title>
<ellipse fill="none" stroke="black" cx="2417.04" cy="-18" rx="75.29" ry="18"/>
<text text-anchor="middle" x="2417.04" y="-14.3" font-family="Times,serif" font-size="14.00">leaf=0.344669849</text>
</g>
<!-- 33&#45;&gt;54 -->
<g id="edge36" class="edge">
<title>33&#45;&gt;54</title>
<path fill="none" stroke="#ff0000" d="M2397.9,-86.8C2401.22,-75.05 2405.68,-59.24 2409.46,-45.84"/>
<polygon fill="#ff0000" stroke="#ff0000" points="2412.84,-46.75 2412.19,-36.18 2406.11,-44.85 2412.84,-46.75"/>
<text text-anchor="middle" x="2414.04" y="-57.8" font-family="Times,serif" font-size="14.00">no</text>
</g>
<!-- 55 -->
<g id="node38" class="node">
<title>55</title>
<ellipse fill="none" stroke="black" cx="2589.04" cy="-18" rx="78.79" ry="18"/>
<text text-anchor="middle" x="2589.04" y="-14.3" font-family="Times,serif" font-size="14.00">leaf=&#45;0.121459611</text>
</g>
<!-- 34&#45;&gt;55 -->
<g id="edge37" class="edge">
<title>34&#45;&gt;55</title>
<path fill="none" stroke="#0000ff" d="M2608.98,-86.8C2605.53,-75.05 2600.88,-59.24 2596.94,-45.84"/>
<polygon fill="#0000ff" stroke="#0000ff" points="2600.27,-44.78 2594.09,-36.18 2593.56,-46.76 2600.27,-44.78"/>
<text text-anchor="middle" x="2637.54" y="-57.8" font-family="Times,serif" font-size="14.00">yes, missing</text>
</g>
<!-- 56 -->
<g id="node39" class="node">
<title>56</title>
<ellipse fill="none" stroke="black" cx="2761.04" cy="-18" rx="75.29" ry="18"/>
<text text-anchor="middle" x="2761.04" y="-14.3" font-family="Times,serif" font-size="14.00">leaf=0.173558414</text>
</g>
<!-- 34&#45;&gt;56 -->
<g id="edge38" class="edge">
<title>34&#45;&gt;56</title>
<path fill="none" stroke="#ff0000" d="M2643.43,-87.55C2653.77,-81.73 2665.44,-75.11 2676.04,-69 2692.41,-59.57 2710.46,-48.98 2725.7,-39.98"/>
<polygon fill="#ff0000" stroke="#ff0000" points="2727.49,-42.99 2734.32,-34.89 2723.93,-36.96 2727.49,-42.99"/>
<text text-anchor="middle" x="2709.04" y="-57.8" font-family="Times,serif" font-size="14.00">no</text>
</g>
<!-- 35 -->
<g id="node42" class="node">
<title>35</title>
<ellipse fill="none" stroke="black" cx="3072.04" cy="-105" rx="122.38" ry="18"/>
<text text-anchor="middle" x="3072.04" y="-101.3" font-family="Times,serif" font-size="14.00">tempo_relacionamento&lt;1676.5</text>
</g>
<!-- 21&#45;&gt;35 -->
<g id="edge41" class="edge">
<title>21&#45;&gt;35</title>
<path fill="none" stroke="#0000ff" d="M3161.91,-174.21C3144.81,-161.23 3120.95,-143.12 3102.12,-128.83"/>
<polygon fill="#0000ff" stroke="#0000ff" points="3104.21,-126.02 3094.12,-122.76 3099.97,-131.59 3104.21,-126.02"/>
<text text-anchor="middle" x="3169.54" y="-144.8" font-family="Times,serif" font-size="14.00">yes, missing</text>
</g>
<!-- 36 -->
<g id="node43" class="node">
<title>36</title>
<ellipse fill="none" stroke="black" cx="3307.04" cy="-105" rx="94.78" ry="18"/>
<text text-anchor="middle" x="3307.04" y="-101.3" font-family="Times,serif" font-size="14.00">tempo_aprovacao&lt;48.5</text>
</g>
<!-- 21&#45;&gt;36 -->
<g id="edge42" class="edge">
<title>21&#45;&gt;36</title>
<path fill="none" stroke="#ff0000" d="M3208.05,-174.41C3227.1,-161.25 3253.91,-142.72 3274.82,-128.27"/>
<polygon fill="#ff0000" stroke="#ff0000" points="3276.86,-131.11 3283.1,-122.55 3272.88,-125.35 3276.86,-131.11"/>
<text text-anchor="middle" x="3260.04" y="-144.8" font-family="Times,serif" font-size="14.00">no</text>
</g>
<!-- 37 -->
<g id="node48" class="node">
<title>37</title>
<ellipse fill="none" stroke="black" cx="3624.04" cy="-105" rx="80.69" ry="18"/>
<text text-anchor="middle" x="3624.04" y="-101.3" font-family="Times,serif" font-size="14.00">ganho_limite&lt;5550</text>
</g>
<!-- 22&#45;&gt;37 -->
<g id="edge47" class="edge">
<title>22&#45;&gt;37</title>
<path fill="none" stroke="#0000ff" d="M3587.35,-173.8C3593.88,-161.74 3602.72,-145.4 3610.09,-131.79"/>
<polygon fill="#0000ff" stroke="#0000ff" points="3613.22,-133.35 3614.9,-122.89 3607.07,-130.01 3613.22,-133.35"/>
<text text-anchor="middle" x="3638.54" y="-144.8" font-family="Times,serif" font-size="14.00">yes, missing</text>
</g>
<!-- 38 -->
<g id="node49" class="node">
<title>38</title>
<ellipse fill="none" stroke="black" cx="3968.04" cy="-105" rx="102.08" ry="18"/>
<text text-anchor="middle" x="3968.04" y="-101.3" font-family="Times,serif" font-size="14.00">nr_purchases_online&lt;367</text>
</g>
<!-- 22&#45;&gt;38 -->
<g id="edge48" class="edge">
<title>22&#45;&gt;38</title>
<path fill="none" stroke="#ff0000" d="M3643.32,-176.77C3713.32,-161.52 3824.14,-137.36 3896.47,-121.6"/>
<polygon fill="#ff0000" stroke="#ff0000" points="3897.39,-124.98 3906.42,-119.43 3895.9,-118.14 3897.39,-124.98"/>
<text text-anchor="middle" x="3804.04" y="-144.8" font-family="Times,serif" font-size="14.00">no</text>
</g>
<!-- 57 -->
<g id="node44" class="node">
<title>57</title>
<ellipse fill="none" stroke="black" cx="2933.04" cy="-18" rx="78.79" ry="18"/>
<text text-anchor="middle" x="2933.04" y="-14.3" font-family="Times,serif" font-size="14.00">leaf=&#45;0.177073091</text>
</g>
<!-- 35&#45;&gt;57 -->
<g id="edge43" class="edge">
<title>35&#45;&gt;57</title>
<path fill="none" stroke="#0000ff" d="M3044.28,-87.32C3034.69,-81.54 3023.88,-75 3014.04,-69 2998.74,-59.66 2981.86,-49.26 2967.49,-40.37"/>
<polygon fill="#0000ff" stroke="#0000ff" points="2969.25,-37.34 2958.9,-35.05 2965.56,-43.29 2969.25,-37.34"/>
<text text-anchor="middle" x="3048.54" y="-57.8" font-family="Times,serif" font-size="14.00">yes, missing</text>
</g>
<!-- 58 -->
<g id="node45" class="node">
<title>58</title>
<ellipse fill="none" stroke="black" cx="3105.04" cy="-18" rx="75.29" ry="18"/>
<text text-anchor="middle" x="3105.04" y="-14.3" font-family="Times,serif" font-size="14.00">leaf=0.157318681</text>
</g>
<!-- 35&#45;&gt;58 -->
<g id="edge44" class="edge">
<title>35&#45;&gt;58</title>
<path fill="none" stroke="#ff0000" d="M3078.72,-86.8C3083.28,-75.05 3089.42,-59.24 3094.62,-45.84"/>
<polygon fill="#ff0000" stroke="#ff0000" points="3098.02,-46.76 3098.37,-36.18 3091.49,-44.23 3098.02,-46.76"/>
<text text-anchor="middle" x="3098.04" y="-57.8" font-family="Times,serif" font-size="14.00">no</text>
</g>
<!-- 59 -->
<g id="node46" class="node">
<title>59</title>
<ellipse fill="none" stroke="black" cx="3274.04" cy="-18" rx="75.29" ry="18"/>
<text text-anchor="middle" x="3274.04" y="-14.3" font-family="Times,serif" font-size="14.00">leaf=0.299994022</text>
</g>
<!-- 36&#45;&gt;59 -->
<g id="edge45" class="edge">
<title>36&#45;&gt;59</title>
<path fill="none" stroke="#0000ff" d="M3300.36,-86.8C3295.8,-75.05 3289.66,-59.24 3284.46,-45.84"/>
<polygon fill="#0000ff" stroke="#0000ff" points="3287.59,-44.23 3280.71,-36.18 3281.07,-46.76 3287.59,-44.23"/>
<text text-anchor="middle" x="3327.54" y="-57.8" font-family="Times,serif" font-size="14.00">yes, missing</text>
</g>
<!-- 60 -->
<g id="node47" class="node">
<title>60</title>
<ellipse fill="none" stroke="black" cx="3447.04" cy="-18" rx="79.89" ry="18"/>
<text text-anchor="middle" x="3447.04" y="-14.3" font-family="Times,serif" font-size="14.00">leaf=0.0158366784</text>
</g>
<!-- 36&#45;&gt;60 -->
<g id="edge46" class="edge">
<title>36&#45;&gt;60</title>
<path fill="none" stroke="#ff0000" d="M3334.72,-87.72C3344.62,-81.86 3355.85,-75.17 3366.04,-69 3381.38,-59.72 3398.26,-49.32 3412.63,-40.43"/>
<polygon fill="#ff0000" stroke="#ff0000" points="3414.56,-43.35 3421.21,-35.1 3410.87,-37.4 3414.56,-43.35"/>
<text text-anchor="middle" x="3398.04" y="-57.8" font-family="Times,serif" font-size="14.00">no</text>
</g>
<!-- 61 -->
<g id="node50" class="node">
<title>61</title>
<ellipse fill="none" stroke="black" cx="3624.04" cy="-18" rx="78.79" ry="18"/>
<text text-anchor="middle" x="3624.04" y="-14.3" font-family="Times,serif" font-size="14.00">leaf=&#45;0.166012511</text>
</g>
<!-- 37&#45;&gt;61 -->
<g id="edge49" class="edge">
<title>37&#45;&gt;61</title>
<path fill="none" stroke="#0000ff" d="M3624.04,-86.8C3624.04,-75.16 3624.04,-59.55 3624.04,-46.24"/>
<polygon fill="#0000ff" stroke="#0000ff" points="3627.54,-46.18 3624.04,-36.18 3620.54,-46.18 3627.54,-46.18"/>
<text text-anchor="middle" x="3658.54" y="-57.8" font-family="Times,serif" font-size="14.00">yes, missing</text>
</g>
<!-- 62 -->
<g id="node51" class="node">
<title>62</title>
<ellipse fill="none" stroke="black" cx="3796.04" cy="-18" rx="75.29" ry="18"/>
<text text-anchor="middle" x="3796.04" y="-14.3" font-family="Times,serif" font-size="14.00">leaf=0.154763788</text>
</g>
<!-- 37&#45;&gt;62 -->
<g id="edge50" class="edge">
<title>37&#45;&gt;62</title>
<path fill="none" stroke="#ff0000" d="M3656.82,-88.46C3669.42,-82.44 3683.93,-75.45 3697.04,-69 3716.61,-59.37 3738.24,-48.47 3756.28,-39.32"/>
<polygon fill="#ff0000" stroke="#ff0000" points="3758.03,-42.36 3765.35,-34.7 3754.85,-36.12 3758.03,-42.36"/>
<text text-anchor="middle" x="3735.04" y="-57.8" font-family="Times,serif" font-size="14.00">no</text>
</g>
<!-- 63 -->
<g id="node52" class="node">
<title>63</title>
<ellipse fill="none" stroke="black" cx="3968.04" cy="-18" rx="78.79" ry="18"/>
<text text-anchor="middle" x="3968.04" y="-14.3" font-family="Times,serif" font-size="14.00">leaf=&#45;0.305166543</text>
</g>
<!-- 38&#45;&gt;63 -->
<g id="edge51" class="edge">
<title>38&#45;&gt;63</title>
<path fill="none" stroke="#0000ff" d="M3968.04,-86.8C3968.04,-75.16 3968.04,-59.55 3968.04,-46.24"/>
<polygon fill="#0000ff" stroke="#0000ff" points="3971.54,-46.18 3968.04,-36.18 3964.54,-46.18 3971.54,-46.18"/>
<text text-anchor="middle" x="4002.54" y="-57.8" font-family="Times,serif" font-size="14.00">yes, missing</text>
</g>
<!-- 64 -->
<g id="node53" class="node">
<title>64</title>
<ellipse fill="none" stroke="black" cx="4148.04" cy="-18" rx="83.39" ry="18"/>
<text text-anchor="middle" x="4148.04" y="-14.3" font-family="Times,serif" font-size="14.00">leaf=&#45;0.0959209129</text>
</g>
<!-- 38&#45;&gt;64 -->
<g id="edge52" class="edge">
<title>38&#45;&gt;64</title>
<path fill="none" stroke="#ff0000" d="M4001.9,-88.01C4031.25,-74.15 4073.86,-54.03 4105.5,-39.09"/>
<polygon fill="#ff0000" stroke="#ff0000" points="4107.4,-42.06 4114.95,-34.63 4104.41,-35.73 4107.4,-42.06"/>
<text text-anchor="middle" x="4076.04" y="-57.8" font-family="Times,serif" font-size="14.00">no</text>
</g>
<!-- 11 -->
<g id="node56" class="node">
<title>11</title>
<ellipse fill="none" stroke="black" cx="3445.04" cy="-279" rx="83.39" ry="18"/>
<text text-anchor="middle" x="3445.04" y="-275.3" font-family="Times,serif" font-size="14.00">leaf=&#45;0.0381292105</text>
</g>
<!-- 5&#45;&gt;11 -->
<g id="edge55" class="edge">
<title>5&#45;&gt;11</title>
<path fill="none" stroke="#0000ff" d="M3495.29,-347.8C3486.18,-335.51 3473.78,-318.77 3463.58,-305.01"/>
<polygon fill="#0000ff" stroke="#0000ff" points="3466.32,-302.84 3457.56,-296.89 3460.7,-307 3466.32,-302.84"/>
<text text-anchor="middle" x="3515.54" y="-318.8" font-family="Times,serif" font-size="14.00">yes, missing</text>
</g>
<!-- 12 -->
<g id="node57" class="node">
<title>12</title>
<ellipse fill="none" stroke="black" cx="3625.04" cy="-279" rx="78.79" ry="18"/>
<text text-anchor="middle" x="3625.04" y="-275.3" font-family="Times,serif" font-size="14.00">leaf=&#45;0.236581087</text>
</g>
<!-- 5&#45;&gt;12 -->
<g id="edge56" class="edge">
<title>5&#45;&gt;12</title>
<path fill="none" stroke="#ff0000" d="M3530.88,-348.41C3549.03,-335.22 3574.6,-316.65 3594.51,-302.18"/>
<polygon fill="#ff0000" stroke="#ff0000" points="3596.63,-304.97 3602.66,-296.26 3592.51,-299.31 3596.63,-304.97"/>
<text text-anchor="middle" x="3581.04" y="-318.8" font-family="Times,serif" font-size="14.00">no</text>
</g>
<!-- 13 -->
<g id="node58" class="node">
<title>13</title>
<ellipse fill="none" stroke="black" cx="3871.04" cy="-279" rx="102.08" ry="18"/>
<text text-anchor="middle" x="3871.04" y="-275.3" font-family="Times,serif" font-size="14.00">nr_trans_mov_conta&lt;252</text>
</g>
<!-- 6&#45;&gt;13 -->
<g id="edge57" class="edge">
<title>6&#45;&gt;13</title>
<path fill="none" stroke="#0000ff" d="M3871.04,-347.8C3871.04,-336.16 3871.04,-320.55 3871.04,-307.24"/>
<polygon fill="#0000ff" stroke="#0000ff" points="3874.54,-307.18 3871.04,-297.18 3867.54,-307.18 3874.54,-307.18"/>
<text text-anchor="middle" x="3905.54" y="-318.8" font-family="Times,serif" font-size="14.00">yes, missing</text>
</g>
<!-- 14 -->
<g id="node59" class="node">
<title>14</title>
<ellipse fill="none" stroke="black" cx="4195.04" cy="-279" rx="118.08" ry="18"/>
<text text-anchor="middle" x="4195.04" y="-275.3" font-family="Times,serif" font-size="14.00">share_of_wallet&lt;0.268460363</text>
</g>
<!-- 6&#45;&gt;14 -->
<g id="edge58" class="edge">
<title>6&#45;&gt;14</title>
<path fill="none" stroke="#ff0000" d="M3929.72,-349.61C3985.74,-334.91 4070.06,-312.79 4128.55,-297.44"/>
<polygon fill="#ff0000" stroke="#ff0000" points="4129.65,-300.77 4138.43,-294.85 4127.87,-294 4129.65,-300.77"/>
<text text-anchor="middle" x="4060.04" y="-318.8" font-family="Times,serif" font-size="14.00">no</text>
</g>
<!-- 23 -->
<g id="node60" class="node">
<title>23</title>
<ellipse fill="none" stroke="black" cx="3794.04" cy="-192" rx="75.29" ry="18"/>
<text text-anchor="middle" x="3794.04" y="-188.3" font-family="Times,serif" font-size="14.00">leaf=0.212767377</text>
</g>
<!-- 13&#45;&gt;23 -->
<g id="edge59" class="edge">
<title>13&#45;&gt;23</title>
<path fill="none" stroke="#0000ff" d="M3855.46,-260.8C3844.22,-248.39 3828.88,-231.46 3816.34,-217.62"/>
<polygon fill="#0000ff" stroke="#0000ff" points="3818.65,-214.95 3809.34,-209.89 3813.46,-219.65 3818.65,-214.95"/>
<text text-anchor="middle" x="3872.54" y="-231.8" font-family="Times,serif" font-size="14.00">yes, missing</text>
</g>
<!-- 24 -->
<g id="node61" class="node">
<title>24</title>
<ellipse fill="none" stroke="black" cx="3971.04" cy="-192" rx="83.39" ry="18"/>
<text text-anchor="middle" x="3971.04" y="-188.3" font-family="Times,serif" font-size="14.00">leaf=&#45;0.0408169813</text>
</g>
<!-- 13&#45;&gt;24 -->
<g id="edge60" class="edge">
<title>13&#45;&gt;24</title>
<path fill="none" stroke="#ff0000" d="M3890.8,-261.21C3905.86,-248.4 3926.8,-230.61 3943.51,-216.4"/>
<polygon fill="#ff0000" stroke="#ff0000" points="3945.97,-218.9 3951.33,-209.76 3941.44,-213.57 3945.97,-218.9"/>
<text text-anchor="middle" x="3934.04" y="-231.8" font-family="Times,serif" font-size="14.00">no</text>
</g>
<!-- 25 -->
<g id="node62" class="node">
<title>25</title>
<ellipse fill="none" stroke="black" cx="4195.04" cy="-192" rx="122.68" ry="18"/>
<text text-anchor="middle" x="4195.04" y="-188.3" font-family="Times,serif" font-size="14.00">share_of_wallet&lt;0.0536181927</text>
</g>
<!-- 14&#45;&gt;25 -->
<g id="edge61" class="edge">
<title>14&#45;&gt;25</title>
<path fill="none" stroke="#0000ff" d="M4195.04,-260.8C4195.04,-249.16 4195.04,-233.55 4195.04,-220.24"/>
<polygon fill="#0000ff" stroke="#0000ff" points="4198.54,-220.18 4195.04,-210.18 4191.54,-220.18 4198.54,-220.18"/>
<text text-anchor="middle" x="4229.54" y="-231.8" font-family="Times,serif" font-size="14.00">yes, missing</text>
</g>
<!-- 26 -->
<g id="node63" class="node">
<title>26</title>
<ellipse fill="none" stroke="black" cx="4416.04" cy="-192" rx="79.89" ry="18"/>
<text text-anchor="middle" x="4416.04" y="-188.3" font-family="Times,serif" font-size="14.00">leaf=0.0540390275</text>
</g>
<!-- 14&#45;&gt;26 -->
<g id="edge62" class="edge">
<title>14&#45;&gt;26</title>
<path fill="none" stroke="#ff0000" d="M4236.35,-262.11C4273.67,-247.76 4328.6,-226.63 4367.89,-211.52"/>
<polygon fill="#ff0000" stroke="#ff0000" points="4369.45,-214.67 4377.53,-207.81 4366.94,-208.14 4369.45,-214.67"/>
<text text-anchor="middle" x="4326.04" y="-231.8" font-family="Times,serif" font-size="14.00">no</text>
</g>
<!-- 39 -->
<g id="node64" class="node">
<title>39</title>
<ellipse fill="none" stroke="black" cx="4186.04" cy="-105" rx="79.89" ry="18"/>
<text text-anchor="middle" x="4186.04" y="-101.3" font-family="Times,serif" font-size="14.00">leaf=0.0373375416</text>
</g>
<!-- 25&#45;&gt;39 -->
<g id="edge63" class="edge">
<title>25&#45;&gt;39</title>
<path fill="none" stroke="#0000ff" d="M4193.22,-173.8C4191.99,-162.16 4190.34,-146.55 4188.93,-133.24"/>
<polygon fill="#0000ff" stroke="#0000ff" points="4192.39,-132.75 4187.86,-123.18 4185.43,-133.49 4192.39,-132.75"/>
<text text-anchor="middle" x="4226.54" y="-144.8" font-family="Times,serif" font-size="14.00">yes, missing</text>
</g>
<!-- 40 -->
<g id="node65" class="node">
<title>40</title>
<ellipse fill="none" stroke="black" cx="4363.04" cy="-105" rx="78.79" ry="18"/>
<text text-anchor="middle" x="4363.04" y="-101.3" font-family="Times,serif" font-size="14.00">leaf=&#45;0.256534785</text>
</g>
<!-- 25&#45;&gt;40 -->
<g id="edge64" class="edge">
<title>25&#45;&gt;40</title>
<path fill="none" stroke="#ff0000" d="M4228.19,-174.5C4239.85,-168.67 4253.04,-162.06 4265.04,-156 4284.35,-146.25 4305.76,-135.34 4323.62,-126.2"/>
<polygon fill="#ff0000" stroke="#ff0000" points="4325.31,-129.27 4332.62,-121.6 4322.12,-123.04 4325.31,-129.27"/>
<text text-anchor="middle" x="4299.04" y="-144.8" font-family="Times,serif" font-size="14.00">no</text>
</g>
</g>
</svg>
