<?xml version="1.0" encoding="UTF-8" standalone="no"?>
<!DOCTYPE svg PUBLIC "-//W3C//DTD SVG 1.1//EN"
 "http://www.w3.org/Graphics/SVG/1.1/DTD/svg11.dtd">
<!-- Generated by graphviz version 2.43.0 (0)
 -->
<!-- Title: %3 Pages: 1 -->
<svg width="1340pt" height="305pt"
 viewBox="0.00 0.00 1340.19 305.00" xmlns="http://www.w3.org/2000/svg" xmlns:xlink="http://www.w3.org/1999/xlink">
<g id="graph0" class="graph" transform="scale(1 1) rotate(0) translate(4 301)">
<title>%3</title>
<polygon fill="white" stroke="transparent" points="-4,4 -4,-301 1336.19,-301 1336.19,4 -4,4"/>
<!-- 0 -->
<g id="node1" class="node">
<title>0</title>
<ellipse fill="none" stroke="black" cx="616.54" cy="-279" rx="100.98" ry="18"/>
<text text-anchor="middle" x="616.54" y="-275.3" font-family="Times,serif" font-size="14.00">nr_purchases_virtual&lt;4.5</text>
</g>
<!-- 1 -->
<g id="node2" class="node">
<title>1</title>
<ellipse fill="none" stroke="black" cx="460.54" cy="-192" rx="120.78" ry="18"/>
<text text-anchor="middle" x="460.54" y="-188.3" font-family="Times,serif" font-size="14.00">nr_purchases_contactless&lt;14.5</text>
</g>
<!-- 0&#45;&gt;1 -->
<g id="edge1" class="edge">
<title>0&#45;&gt;1</title>
<path fill="none" stroke="#0000ff" d="M586.47,-261.61C561.83,-248.19 526.79,-229.1 499.93,-214.46"/>
<polygon fill="#0000ff" stroke="#0000ff" points="501.25,-211.19 490.8,-209.48 497.9,-217.34 501.25,-211.19"/>
<text text-anchor="middle" x="583.04" y="-231.8" font-family="Times,serif" font-size="14.00">yes, missing</text>
</g>
<!-- 2 -->
<g id="node3" class="node">
<title>2</title>
<ellipse fill="none" stroke="black" cx="807.54" cy="-192" rx="110.48" ry="18"/>
<text text-anchor="middle" x="807.54" y="-188.3" font-family="Times,serif" font-size="14.00">trans_mobilidade_app&lt;14.5</text>
</g>
<!-- 0&#45;&gt;2 -->
<g id="edge2" class="edge">
<title>0&#45;&gt;2</title>
<path fill="none" stroke="#ff0000" d="M652.47,-262.01C683.58,-248.17 728.75,-228.07 762.32,-213.13"/>
<polygon fill="#ff0000" stroke="#ff0000" points="763.74,-216.32 771.46,-209.06 760.9,-209.93 763.74,-216.32"/>
<text text-anchor="middle" x="730.54" y="-231.8" font-family="Times,serif" font-size="14.00">no</text>
</g>
<!-- 3 -->
<g id="node4" class="node">
<title>3</title>
<ellipse fill="none" stroke="black" cx="232.54" cy="-105" rx="105.88" ry="18"/>
<text text-anchor="middle" x="232.54" y="-101.3" font-family="Times,serif" font-size="14.00">trans_mobilidade_app&lt;4.5</text>
</g>
<!-- 1&#45;&gt;3 -->
<g id="edge3" class="edge">
<title>1&#45;&gt;3</title>
<path fill="none" stroke="#0000ff" d="M417.93,-175.11C379.98,-160.97 324.38,-140.24 283.98,-125.17"/>
<polygon fill="#0000ff" stroke="#0000ff" points="285.16,-121.88 274.57,-121.67 282.71,-128.44 285.16,-121.88"/>
<text text-anchor="middle" x="395.04" y="-144.8" font-family="Times,serif" font-size="14.00">yes, missing</text>
</g>
<!-- 4 -->
<g id="node5" class="node">
<title>4</title>
<ellipse fill="none" stroke="black" cx="460.54" cy="-105" rx="76.09" ry="18"/>
<text text-anchor="middle" x="460.54" y="-101.3" font-family="Times,serif" font-size="14.00">nr_trans_pix&lt;16.5</text>
</g>
<!-- 1&#45;&gt;4 -->
<g id="edge4" class="edge">
<title>1&#45;&gt;4</title>
<path fill="none" stroke="#ff0000" d="M460.54,-173.8C460.54,-162.16 460.54,-146.55 460.54,-133.24"/>
<polygon fill="#ff0000" stroke="#ff0000" points="464.04,-133.18 460.54,-123.18 457.04,-133.18 464.04,-133.18"/>
<text text-anchor="middle" x="467.54" y="-144.8" font-family="Times,serif" font-size="14.00">no</text>
</g>
<!-- 5 -->
<g id="node10" class="node">
<title>5</title>
<ellipse fill="none" stroke="black" cx="807.54" cy="-105" rx="76.09" ry="18"/>
<text text-anchor="middle" x="807.54" y="-101.3" font-family="Times,serif" font-size="14.00">nr_trans_pix&lt;32.5</text>
</g>
<!-- 2&#45;&gt;5 -->
<g id="edge9" class="edge">
<title>2&#45;&gt;5</title>
<path fill="none" stroke="#0000ff" d="M807.54,-173.8C807.54,-162.16 807.54,-146.55 807.54,-133.24"/>
<polygon fill="#0000ff" stroke="#0000ff" points="811.04,-133.18 807.54,-123.18 804.04,-133.18 811.04,-133.18"/>
<text text-anchor="middle" x="842.04" y="-144.8" font-family="Times,serif" font-size="14.00">yes, missing</text>
</g>
<!-- 6 -->
<g id="node11" class="node">
<title>6</title>
<ellipse fill="none" stroke="black" cx="1085.54" cy="-105" rx="104.78" ry="18"/>
<text text-anchor="middle" x="1085.54" y="-101.3" font-family="Times,serif" font-size="14.00">nr_purchases_online&lt;18.5</text>
</g>
<!-- 2&#45;&gt;6 -->
<g id="edge10" class="edge">
<title>2&#45;&gt;6</title>
<path fill="none" stroke="#ff0000" d="M857.24,-175.8C904.68,-161.3 976.19,-139.44 1026.51,-124.05"/>
<polygon fill="#ff0000" stroke="#ff0000" points="1027.73,-127.34 1036.27,-121.06 1025.69,-120.64 1027.73,-127.34"/>
<text text-anchor="middle" x="970.54" y="-144.8" font-family="Times,serif" font-size="14.00">no</text>
</g>
<!-- 7 -->
<g id="node6" class="node">
<title>7</title>
<ellipse fill="none" stroke="black" cx="69.54" cy="-18" rx="69.59" ry="18"/>
<text text-anchor="middle" x="69.54" y="-14.3" font-family="Times,serif" font-size="14.00">leaf=&#45;0.1488709</text>
</g>
<!-- 3&#45;&gt;7 -->
<g id="edge5" class="edge">
<title>3&#45;&gt;7</title>
<path fill="none" stroke="#0000ff" d="M197.8,-87.86C185.62,-82.07 171.9,-75.39 159.54,-69 141.59,-59.72 121.94,-48.88 105.59,-39.68"/>
<polygon fill="#0000ff" stroke="#0000ff" points="107.31,-36.63 96.89,-34.75 103.87,-42.72 107.31,-36.63"/>
<text text-anchor="middle" x="194.04" y="-57.8" font-family="Times,serif" font-size="14.00">yes, missing</text>
</g>
<!-- 8 -->
<g id="node7" class="node">
<title>8</title>
<ellipse fill="none" stroke="black" cx="232.54" cy="-18" rx="75.29" ry="18"/>
<text text-anchor="middle" x="232.54" y="-14.3" font-family="Times,serif" font-size="14.00">leaf=0.160881549</text>
</g>
<!-- 3&#45;&gt;8 -->
<g id="edge6" class="edge">
<title>3&#45;&gt;8</title>
<path fill="none" stroke="#ff0000" d="M232.54,-86.8C232.54,-75.16 232.54,-59.55 232.54,-46.24"/>
<polygon fill="#ff0000" stroke="#ff0000" points="236.04,-46.18 232.54,-36.18 229.04,-46.18 236.04,-46.18"/>
<text text-anchor="middle" x="239.54" y="-57.8" font-family="Times,serif" font-size="14.00">no</text>
</g>
<!-- 9 -->
<g id="node8" class="node">
<title>9</title>
<ellipse fill="none" stroke="black" cx="401.54" cy="-18" rx="75.29" ry="18"/>
<text text-anchor="middle" x="401.54" y="-14.3" font-family="Times,serif" font-size="14.00">leaf=0.123880662</text>
</g>
<!-- 4&#45;&gt;9 -->
<g id="edge7" class="edge">
<title>4&#45;&gt;9</title>
<path fill="none" stroke="#0000ff" d="M448.89,-87.21C440.46,-75.06 428.91,-58.43 419.34,-44.63"/>
<polygon fill="#0000ff" stroke="#0000ff" points="421.96,-42.27 413.38,-36.05 416.21,-46.26 421.96,-42.27"/>
<text text-anchor="middle" x="470.04" y="-57.8" font-family="Times,serif" font-size="14.00">yes, missing</text>
</g>
<!-- 10 -->
<g id="node9" class="node">
<title>10</title>
<ellipse fill="none" stroke="black" cx="573.54" cy="-18" rx="78.79" ry="18"/>
<text text-anchor="middle" x="573.54" y="-14.3" font-family="Times,serif" font-size="14.00">leaf=&#45;0.124577768</text>
</g>
<!-- 4&#45;&gt;10 -->
<g id="edge8" class="edge">
<title>4&#45;&gt;10</title>
<path fill="none" stroke="#ff0000" d="M483.1,-87.74C491.16,-81.88 500.29,-75.18 508.54,-69 520.35,-60.16 533.24,-50.28 544.41,-41.66"/>
<polygon fill="#ff0000" stroke="#ff0000" points="546.8,-44.24 552.57,-35.35 542.52,-38.7 546.8,-44.24"/>
<text text-anchor="middle" x="535.54" y="-57.8" font-family="Times,serif" font-size="14.00">no</text>
</g>
<!-- 11 -->
<g id="node12" class="node">
<title>11</title>
<ellipse fill="none" stroke="black" cx="745.54" cy="-18" rx="75.29" ry="18"/>
<text text-anchor="middle" x="745.54" y="-14.3" font-family="Times,serif" font-size="14.00">leaf=0.154077858</text>
</g>
<!-- 5&#45;&gt;11 -->
<g id="edge11" class="edge">
<title>5&#45;&gt;11</title>
<path fill="none" stroke="#0000ff" d="M795.29,-87.21C786.35,-74.95 774.07,-58.11 763.95,-44.24"/>
<polygon fill="#0000ff" stroke="#0000ff" points="766.7,-42.07 757.98,-36.05 761.05,-46.19 766.7,-42.07"/>
<text text-anchor="middle" x="815.04" y="-57.8" font-family="Times,serif" font-size="14.00">yes, missing</text>
</g>
<!-- 12 -->
<g id="node13" class="node">
<title>12</title>
<ellipse fill="none" stroke="black" cx="917.54" cy="-18" rx="78.79" ry="18"/>
<text text-anchor="middle" x="917.54" y="-14.3" font-family="Times,serif" font-size="14.00">leaf=&#45;0.138169691</text>
</g>
<!-- 5&#45;&gt;12 -->
<g id="edge12" class="edge">
<title>5&#45;&gt;12</title>
<path fill="none" stroke="#ff0000" d="M829.12,-87.68C836.84,-81.81 845.6,-75.13 853.54,-69 865.02,-60.15 877.6,-50.35 888.55,-41.78"/>
<polygon fill="#ff0000" stroke="#ff0000" points="890.84,-44.43 896.55,-35.51 886.52,-38.92 890.84,-44.43"/>
<text text-anchor="middle" x="878.54" y="-57.8" font-family="Times,serif" font-size="14.00">no</text>
</g>
<!-- 13 -->
<g id="node14" class="node">
<title>13</title>
<ellipse fill="none" stroke="black" cx="1085.54" cy="-18" rx="71.49" ry="18"/>
<text text-anchor="middle" x="1085.54" y="-14.3" font-family="Times,serif" font-size="14.00">leaf=0.14707002</text>
</g>
<!-- 6&#45;&gt;13 -->
<g id="edge13" class="edge">
<title>6&#45;&gt;13</title>
<path fill="none" stroke="#0000ff" d="M1085.54,-86.8C1085.54,-75.16 1085.54,-59.55 1085.54,-46.24"/>
<polygon fill="#0000ff" stroke="#0000ff" points="1089.04,-46.18 1085.54,-36.18 1082.04,-46.18 1089.04,-46.18"/>
<text text-anchor="middle" x="1120.04" y="-57.8" font-family="Times,serif" font-size="14.00">yes, missing</text>
</g>
<!-- 14 -->
<g id="node15" class="node">
<title>14</title>
<ellipse fill="none" stroke="black" cx="1253.54" cy="-18" rx="78.79" ry="18"/>
<text text-anchor="middle" x="1253.54" y="-14.3" font-family="Times,serif" font-size="14.00">leaf=&#45;0.167512238</text>
</g>
<!-- 6&#45;&gt;14 -->
<g id="edge14" class="edge">
<title>6&#45;&gt;14</title>
<path fill="none" stroke="#ff0000" d="M1119.84,-87.88C1132.1,-82.03 1145.99,-75.31 1158.54,-69 1177.23,-59.61 1197.79,-48.84 1214.99,-39.71"/>
<polygon fill="#ff0000" stroke="#ff0000" points="1216.98,-42.61 1224.16,-34.83 1213.69,-36.44 1216.98,-42.61"/>
<text text-anchor="middle" x="1193.54" y="-57.8" font-family="Times,serif" font-size="14.00">no</text>
</g>
</g>
</svg>
